<?xml version="1.0" encoding="utf-8"?>
<!-- Generator: Adobe Illustrator 24.0.2, SVG Export Plug-In . SVG Version: 6.00 Build 0)  -->
<svg version="1.1" id="Capa_1" xmlns="http://www.w3.org/2000/svg" xmlns:xlink="http://www.w3.org/1999/xlink" x="0px" y="0px"
	 viewBox="0 0 570 318" style="enable-background:new 0 0 570 318;" xml:space="preserve">
<path class="st0" d="M400.3,256.4c0.4,4,0.7,10.8-0.5,19c-0.1,0.5-0.1,1-0.2,1.6c-0.1,0.5-0.1,1.1-0.3,1.6c-0.2,1.1-0.5,2.2-0.8,3.3
	c-0.4,2.2-1.3,4.5-2,6.8c-0.2,0.6-0.4,1.2-0.6,1.8c-0.2,0.6-0.5,1.2-0.7,1.7c-0.5,1.2-1,2.3-1.6,3.5c-1.1,2.3-2.5,4.6-4,6.9
	c-3.1,4.5-7.2,8.7-12.4,11.5c-5.2,2.9-11.3,4.2-17.2,3.5c-3-0.3-5.9-1.2-8.5-2.6c-2.7-1.4-5.1-3.3-6.9-5.6c-1.9-2.3-3.1-5-3.8-7.8
	c-0.7-2.8-0.7-5.5-0.4-8c0.3-2.9,1.2-5.8,2.3-8.4c1.2-2.6,2.6-5.1,4.4-7.3c3.5-4.5,7.9-8.2,13.1-10.6c1.3-0.6,2.7-1.1,4-1.5
	c1.3-0.3,2.7-0.8,4-1c1.4-0.3,2.7-0.5,4.1-0.7c0.7-0.1,1.4-0.2,2-0.2l2-0.1c5.4-0.3,10.8,0.2,16,0.9c10.4,1.4,20.4,3.9,30.3,4.7
	c10,0.8,20,0.6,29.9-0.9c19.8-2.9,39-10.2,56-20.9c8.5-5.4,16.5-11.5,23.8-18.5c7.2-7,13.9-14.6,19.4-23c1.8-2.6,3.7-5.7,5.6-9
	c0.9-1.6,1.9-3.3,2.7-4.9c0.9-1.7,1.7-3.3,2.5-4.8c1.5-3.1,2.8-5.8,3.8-7.8c1-1.9,1.8-3,2.3-2.7c0.5,0.3,0.6,1.4,0.4,3.2
	c-0.1,0.9-0.3,2-0.6,3.3c-0.3,1.2-0.8,2.7-1.3,4.2c-2.1,6.3-6,14.9-12.6,24.3C538.6,234.3,516.2,252,491,263
	c-12.6,5.5-26,9.3-39.6,11.1c-6.8,0.9-13.7,1.3-20.5,1.2c-3.4,0-6.9-0.3-10.3-0.5l-5.1-0.6c-1.7-0.2-3.4-0.5-5.1-0.7
	c-9.8-1.6-19.4-3.7-28.9-3.9c-1.2-0.1-2.4,0-3.5,0c-1.2,0-2.3,0.1-3.5,0.2c-2.3,0.3-4.6,0.6-6.9,1.2l-1.7,0.4
	c-0.5,0.2-1.1,0.3-1.6,0.5c-1,0.4-2.1,0.9-3,1.4c-2,1.1-3.8,2.4-5.5,3.9c-3.4,3-6.1,6.8-7.9,10.9c-1.7,4.1-2.3,8.6-1.2,12.6
	c1.2,4,4.1,7.3,8,9.1c3.8,1.8,8.4,2.2,12.7,1.4c2.2-0.4,4.2-1.1,6.2-2.2c2-1,3.8-2.3,5.5-3.8c3.4-3,6.1-6.8,8.3-10.9
	c1.1-2.1,2-4.2,2.8-6.4l1.1-3.4l0.6-1.7c0.2-0.6,0.3-1.1,0.4-1.7l0.8-3.4l0.2-0.9l0.1-0.9l0.2-1.8c0.1-1.2,0.4-2.3,0.5-3.5l0.2-3.5
	l0.1-1.8c0-0.6,0-1.2,0-1.8l-0.1-3.6c0-1.2-0.2-2.4-0.3-3.5c-0.1-1.2-0.2-2.4-0.4-3.5c-0.8-4.7-1.7-9.4-3.2-13.9
	c-2.8-9.1-6.9-17.9-12-26c-4.6-7.3-10-14-16-20.3c-6-6.3-12.5-12-19.4-17.5c-13.7-10.9-28.6-20.3-43.5-29.7
	c-14.9-9.4-29.9-19.1-43.8-30.3c-6.9-5.6-13.6-11.6-19.8-18.2c-6.2-6.5-11.8-13.6-16.6-21.3c-4.5-7.2-8.3-15-10.7-23.3
	c-1.1-4.2-1.9-8.5-2.1-12.9c-0.2-4.4,0.2-8.9,1.4-13.2c1.2-4.4,3.2-8.5,5.8-12.2c2.6-3.7,6-6.8,9.8-9.3c3.9-2.4,8.3-4.2,13-4.6
	c4.7-0.4,9.5,0.5,13.7,2.5c4.3,2,7.9,5.2,10.7,8.7c2.8,3.6,4.9,7.5,6.6,11.6c3.3,8.2,4.8,16.8,5.1,25.4c0.2,8.5-0.3,17-1.5,25.4
	c-1.2,8.4-3.1,16.7-5.8,24.8c-4.7,13.9-11.8,27.2-21.9,38.2c-2.5,2.7-5.2,5.3-8.1,7.7c-1.4,1.2-2.9,2.3-4.4,3.5
	c-1.5,1.1-3,2.2-4.6,3.1c-1.6,1-3.2,1.9-4.8,2.8c-1.7,0.8-3.3,1.7-5,2.5c-1.7,0.8-3.4,1.5-5.1,2.2c-1.7,0.6-3.5,1.3-5.2,1.8
	c-14.1,4.5-28.9,5.7-43.4,5.4c-14.5-0.3-28.8-2-43-3.6c-6.7-0.8-14.1-1.6-21.5-2.1c-7.5-0.5-15.2-0.6-22.4-0.4
	c-6,0.1-14,0.6-21.9,1.9c-7.9,1.2-15.5,3.3-21,5.4c-4.8,1.7-9.5,4-13.7,6.7c-9.5,6.2-14,11.9-16.4,14.2c-2.4,2.4-2.9,1.7-1.4-2.2
	c0.3-0.9,0.1-1,0.1-1.5c0-0.3,0.2-0.6,0.5-1.2c0.3-0.6,0.9-1.4,1.8-2.5c0.2-0.2,0.5-0.6,0.6-0.7c5.7-6.8,13.3-12.1,21.6-15.9
	c8.3-3.8,17.2-6,26.1-7.6c11-1.9,22.1-2.5,33.1-2.3c5.5,0.1,11,0.4,16.5,0.9c5.5,0.5,10.9,1.1,16.4,1.7c10.9,1.2,21.7,2.5,32.5,3.1
	c10.8,0.7,21.6,0.8,32.3-0.4c10.6-1.2,21.1-3.7,30.7-8.2c4.8-2.2,9.4-4.9,13.6-8c4.2-3.1,8.2-6.7,11.7-10.6
	c7.1-7.8,12.7-17.1,16.9-26.9c4.2-9.8,7.1-20.2,8.7-30.8c1-6.5,1.6-13.1,1.7-19.7c0.1-1.6,0-3.3,0-4.9c0-1.6-0.1-3.2-0.2-4.9
	c-0.2-3.2-0.7-6.5-1.3-9.6c-1.3-6.3-3.4-12.5-6.8-17.8c-1.7-2.6-3.7-5-6-6.9c-2.3-1.9-5-3.3-7.8-4.2c-2.9-0.8-5.9-1-8.8-0.6
	c-2.9,0.4-5.8,1.5-8.4,3.1c-5.2,3.1-9.5,8-12,13.6c-2.6,5.5-3.3,11.9-2.8,18.2c0.5,6.3,2.4,12.5,4.9,18.4c1.4,3.2,3,6.4,4.9,9.5
	c0.9,1.5,1.8,3.1,2.8,4.6l3,4.4c4.2,5.8,8.9,11.3,13.9,16.6l-0.2-0.2c10.6,10.9,22.9,20.3,35.5,29c23.9,16.6,50.6,31,73.9,50.3
	c11.6,9.6,22.3,20.5,30.6,33.1c8.3,12.5,14.2,26.4,17,40.8c0.2,1.1,0.4,2.5,0.7,3.9c0.2,0.7,0.2,1.5,0.3,2.3
	C400.1,254.7,400.2,255.5,400.3,256.4z"/>
</svg>
